# xmcd
# Track frame offsets:
# 150
# 23897
# 48115
# 85040
# 109092
#
# Disc length: 1773 seconds
# Revision: 1
# Processed by: cddbd v1.5PL3 Copyright (c) Steve Scherf et al.
# Submitted via: VisiTrax 2.9.9.202 - For more info visit www.synapsa.com
#
DISCID=2f06eb05
DTITLE=Janet Jackson - I Get Lonely
DYEAR=1900
DGENRE=Pop
TTITLE0=I Get Lonely (TNT Remix) Featuring BLACKstreet
TTITLE1=I Get Lonely (TNT Bonus Beat Remix)
TTITLE2=I Get Lonely (Janet VS. Jason - The Club Remix)
TTITLE3=I Get Lonely (Jam and Lewis Feel My Bass Mix)
TTITLE4=I Get Lonely (Album version)
EXTD=
EXTT0=
EXTT1=featuring BLACKstrret
EXTT2=
EXTT3=
EXTT4=
PLAYORDER=
